<?xml version="1.0" encoding="utf-8"?>
<!-- Generator: Adobe Illustrator 26.3.1, SVG Export Plug-In . SVG Version: 6.00 Build 0)  -->
<svg version="1.1" id="Layer_1" xmlns="http://www.w3.org/2000/svg" xmlns:xlink="http://www.w3.org/1999/xlink" x="0px" y="0px"
	 viewBox="0 0 200 200" style="enable-background:new 0 0 200 200;" xml:space="preserve">
<style type="text/css">
	.st0{fill:none;}
	.st1{fill:#FFFFFF;}
</style>
<circle class="st0" cx="100" cy="100" r="100"/>
<g>
	<path class="st1" d="M153.8,31.1l-5.8,7.5l6.1-3.9c0.5-0.3,0.9-0.4,1.3-0.4c0.4,0,0.8,0.2,1.3,0.6s0.7,0.7,0.7,1.1
		c0.1,0.4,0,0.9-0.2,1.4l-3.1,6.6l6.6-6.7l-0.3-0.3c-0.5-0.4-0.7-0.8-0.8-1.2c0-0.4,0.1-0.9,0.5-1.3c0.4-0.5,0.8-0.7,1.2-0.7
		c0.4,0,0.9,0.2,1.4,0.7l2.9,2.6c0.6,0.5,0.8,0.9,0.9,1.3c0,0.4-0.1,0.9-0.6,1.3c-0.4,0.4-0.8,0.7-1.2,0.7c-0.4,0-0.8-0.1-1.3-0.5
		l-0.2-0.2L153,49.3c-0.4,0.4-0.7,0.6-1,0.6c-0.2,0-0.6-0.2-1-0.5l-0.6-0.5c-0.3-0.3-0.5-0.6-0.6-0.8c0-0.3,0.1-0.7,0.4-1.4l4.1-9.2
		l-8.4,5.4c-0.6,0.4-1,0.6-1.3,0.6s-0.6-0.2-0.9-0.5l-0.6-0.5c-0.4-0.4-0.7-0.7-0.7-0.9c0-0.2,0.2-0.6,0.5-1l8.1-11.8l-0.2-0.2
		c-0.4-0.4-0.7-0.8-0.7-1.2s0.1-0.9,0.5-1.3c0.4-0.5,0.8-0.7,1.3-0.7c0.4,0,0.9,0.2,1.4,0.7l2.9,2.6c0.6,0.5,0.8,0.9,0.9,1.3
		c0,0.4-0.1,0.9-0.6,1.3c-0.4,0.5-0.8,0.7-1.2,0.7c-0.4,0-0.9-0.2-1.3-0.6L153.8,31.1z"/>
	<path class="st1" d="M168.8,50.1c0.8-0.1,1.5,0.1,2.1,0.5s1.3,1,1.8,1.7c1,1.4,1.3,2.8,1,4.1c-0.3,1.3-1.2,2.5-2.7,3.5l-5,3.4
		l0.2,0.2c0.3,0.5,0.4,0.9,0.4,1.3s-0.4,0.8-0.8,1.1c-0.5,0.4-1,0.5-1.4,0.4c-0.4-0.1-0.8-0.4-1.2-1l-2.2-3.3
		c-0.4-0.6-0.6-1.1-0.5-1.5c0.1-0.4,0.3-0.8,0.9-1.1c0.5-0.3,0.9-0.5,1.3-0.4c0.4,0.1,0.8,0.4,1.1,0.8l0.1,0.2l3.9-2.6
		c1.1-0.8,1.8-1.4,2.1-2s0.1-1.2-0.3-1.9c-0.5-0.7-1.2-1.1-2.1-1.2s-1.8,0.1-2.7,0.7l-3.9,2.6l0.1,0.2c0.3,0.5,0.5,0.9,0.4,1.3
		c-0.1,0.4-0.4,0.8-0.8,1.1c-0.5,0.4-1,0.5-1.4,0.4s-0.8-0.4-1.2-1l-2.2-3.3c-0.4-0.6-0.6-1.1-0.5-1.5c0.1-0.4,0.4-0.8,0.9-1.1
		c0.5-0.3,0.9-0.4,1.3-0.4c0.4,0.1,0.8,0.4,1.1,0.8l0.2,0.2l11.6-7.9l-0.2-0.2c-0.3-0.5-0.4-0.9-0.4-1.3s0.4-0.8,0.8-1.1
		c0.5-0.4,1-0.5,1.4-0.4c0.4,0.1,0.8,0.5,1.2,1.1l1.7,2.5c0.2,0.3,0.3,0.6,0.2,0.8c0,0.2-0.2,0.4-0.6,0.6L168.8,50.1z"/>
	<path class="st1" d="M172.3,69.8c-1,0.7-1.7,1.5-2,2.4c-0.3,1-0.2,2.1,0.2,3.3s1.2,2.4,2.2,3.4c1,1,1.6,1.6,1.7,1.9
		c0.1,0.4,0.1,0.7-0.1,1.1s-0.5,0.6-0.9,0.7c-1,0.3-2-0.1-3.2-1.2c-1.2-1.2-2.1-2.8-2.9-4.9c-0.9-2.5-0.9-4.7,0-6.7
		c0.8-2,2.3-3.4,4.5-4.2c2.2-0.8,4.2-0.6,6.1,0.4c1.9,1,3.3,2.8,4.2,5.2c0.8,2.2,0.8,4.2,0,6.1c-0.8,1.9-2.1,3.2-4,3.8
		c-0.6,0.2-1.1,0.2-1.4,0c-0.3-0.2-0.6-0.8-1-1.7L172.3,69.8z M177.6,77.2c0.9-0.5,1.5-1.2,1.7-2.1s0.2-1.9-0.2-3.1
		c-0.4-1.1-0.9-1.9-1.7-2.4c-0.7-0.5-1.6-0.7-2.7-0.6L177.6,77.2z"/>
	<path class="st1" d="M180.1,92.7l-5.2,0.4l0.3,3.8c0.1,0.7,0,1.3-0.3,1.6s-0.7,0.5-1.3,0.6c-0.6,0.1-1.1-0.1-1.4-0.3
		s-0.5-0.8-0.5-1.5l-0.7-9c-0.1-0.7,0-1.3,0.3-1.6c0.3-0.3,0.7-0.5,1.3-0.6c0.6-0.1,1.1,0.1,1.4,0.4c0.3,0.3,0.5,0.8,0.5,1.6
		l0.1,1.2l7.8-0.6l-0.1-0.7c-0.1-0.7,0-1.3,0.3-1.6s0.7-0.5,1.3-0.6c0.6-0.1,1.1,0.1,1.4,0.3c0.3,0.3,0.5,0.8,0.5,1.5l0.3,3.4
		c0,0.3,0,0.5-0.1,0.7c-0.1,0.2-0.3,0.3-0.5,0.3l-2.4,0.2c1.3,1.1,2.3,2.1,2.9,3.1c0.6,1,1,2,1.1,3.2c0.1,1.1-0.1,1.9-0.5,2.6
		c-0.4,0.7-1,1-1.8,1.1c-0.6,0-1.2-0.1-1.6-0.5c-0.4-0.4-0.7-0.9-0.7-1.6c0-0.5,0.1-1.1,0.4-1.8c0.3-0.7,0.4-1.2,0.4-1.4
		c0-0.5-0.3-1.1-0.8-1.8S181.2,93.6,180.1,92.7z"/>
	<path class="st1" d="M177.8,109.3c-1.2,0.1-2.2,0.4-2.9,1.1s-1.2,1.7-1.4,3s-0.1,2.7,0.3,4.1c0.4,1.4,0.6,2.2,0.6,2.5
		c-0.1,0.4-0.3,0.7-0.6,0.9c-0.3,0.2-0.7,0.3-1.2,0.2c-1-0.2-1.7-1.1-2.2-2.7c-0.5-1.6-0.5-3.5-0.1-5.6c0.5-2.6,1.5-4.5,3.3-5.9
		c1.7-1.3,3.7-1.8,6-1.4c2.3,0.4,4,1.5,5.1,3.4c1.2,1.9,1.5,4.1,1.1,6.6c-0.4,2.3-1.4,4.1-3,5.3s-3.4,1.7-5.4,1.4
		c-0.6-0.1-1-0.3-1.2-0.7c-0.2-0.3-0.2-1,0-1.9L177.8,109.3z M178.7,118.3c1,0,1.9-0.3,2.5-1s1.1-1.6,1.3-2.8
		c0.2-1.2,0.1-2.1-0.3-2.9c-0.4-0.8-1.1-1.4-2.1-1.9L178.7,118.3z"/>
	<path class="st1" d="M153.8,153l-0.2,0.2c-0.4,0.4-0.8,0.7-1.2,0.7c-0.4,0-0.9-0.1-1.3-0.5c-0.5-0.4-0.7-0.8-0.7-1.2
		c0-0.4,0.2-0.9,0.7-1.5l1-1.2c0.3-0.4,0.7-0.7,1-0.7c0.3-0.1,0.8,0,1.3,0.2c0.1-1.1,0.4-2.1,0.8-3c0.4-1,0.9-1.8,1.6-2.6
		c1.1-1.3,2.3-2.1,3.6-2.3s2.5,0.2,3.7,1.1c1.2,1,1.8,2.3,1.7,3.9s-0.9,3.2-2.4,5c-0.3,0.4-0.7,0.8-1.1,1.2
		c-0.4,0.4-0.9,0.9-1.4,1.3l0.2,0.2c0.7,0.6,1.5,0.9,2.1,0.9c0.7,0,1.3-0.4,1.9-1.1c0.5-0.5,0.8-1.4,1.1-2.6c0.3-1.2,0.6-2,0.9-2.4
		c0.3-0.4,0.7-0.6,1.1-0.7c0.4-0.1,0.8,0.1,1.2,0.4c0.7,0.6,0.8,1.5,0.4,2.8c-0.4,1.3-1.3,2.8-2.7,4.5c-1.5,1.8-2.8,2.7-4.2,2.9
		c-1.3,0.2-2.8-0.4-4.4-1.7L153.8,153z M158.7,152c0.4-0.3,0.8-0.7,1.1-1c0.3-0.3,0.6-0.6,0.9-0.9c0.8-0.9,1.2-1.8,1.3-2.5
		c0.1-0.8-0.1-1.4-0.6-1.8c-0.5-0.4-1-0.5-1.5-0.4s-1,0.5-1.6,1.1c-0.5,0.6-0.8,1.2-1.1,1.8c-0.3,0.6-0.4,1.4-0.5,2.1L158.7,152z"/>
	<path class="st1" d="M147.5,164.9l-3-4.2l-3.1,2.2c-0.6,0.4-1.1,0.6-1.5,0.6c-0.4,0-0.8-0.3-1.2-0.8c-0.4-0.5-0.5-1-0.4-1.4
		c0.1-0.4,0.4-0.8,1-1.2l7.3-5.3c0.6-0.4,1.1-0.6,1.5-0.6s0.8,0.3,1.2,0.8c0.4,0.5,0.5,1,0.4,1.4s-0.4,0.8-1.1,1.3l-1,0.7l4.6,6.4
		l0.6-0.4c0.6-0.4,1.1-0.6,1.5-0.6c0.4,0,0.8,0.3,1.2,0.8s0.5,1,0.4,1.4c-0.1,0.4-0.4,0.8-1,1.2l-2.8,2c-0.2,0.2-0.5,0.3-0.7,0.2
		s-0.4-0.1-0.5-0.3l-1.4-1.9c-0.2,1.7-0.6,3.1-1.1,4.1c-0.5,1-1.2,1.9-2.2,2.6c-0.9,0.6-1.7,0.9-2.5,0.9c-0.8,0-1.4-0.4-1.9-1
		c-0.4-0.5-0.5-1-0.4-1.6c0.1-0.6,0.4-1.1,1-1.5c0.4-0.3,1-0.5,1.7-0.6c0.7-0.1,1.2-0.2,1.4-0.4c0.4-0.3,0.8-0.8,1.1-1.6
		C147.1,167.3,147.3,166.3,147.5,164.9z"/>
	<path class="st1" d="M132,171.5c-0.7-1-1.5-1.7-2.5-1.9c-1-0.3-2.1-0.2-3.3,0.3s-2.4,1.2-3.3,2.3c-1,1.1-1.6,1.7-1.8,1.8
		c-0.4,0.1-0.7,0.1-1.1-0.1c-0.3-0.2-0.6-0.5-0.8-0.9c-0.4-0.9,0-2,1.2-3.2c1.1-1.2,2.7-2.2,4.8-3c2.4-0.9,4.7-1,6.7-0.2
		s3.5,2.2,4.3,4.4c0.8,2.1,0.7,4.2-0.3,6.1c-1,1.9-2.7,3.4-5.1,4.3c-2.2,0.8-4.2,0.9-6.1,0.1c-1.9-0.7-3.2-2-3.9-3.9
		c-0.2-0.6-0.2-1.1,0-1.4c0.2-0.3,0.7-0.7,1.6-1L132,171.5z M124.8,176.9c0.5,0.9,1.2,1.4,2.1,1.7c0.9,0.2,1.9,0.1,3.1-0.3
		c1.1-0.4,1.9-1,2.4-1.7c0.5-0.7,0.7-1.7,0.5-2.7L124.8,176.9z"/>
	<path class="st1" d="M90.4,182.6l-1.9-7.2l-4,6.3l0.3,0c0.6,0.1,1,0.3,1.2,0.6s0.3,0.8,0.3,1.4c-0.1,0.6-0.3,1-0.7,1.3
		c-0.3,0.2-0.9,0.3-1.6,0.2l-3.7-0.6c-0.7-0.1-1.2-0.3-1.5-0.6s-0.3-0.8-0.3-1.4c0.1-0.6,0.3-1,0.6-1.2s0.8-0.3,1.4-0.3l0.3,0
		l8.7-13.1l-0.7-0.1c-0.7-0.1-1.2-0.3-1.5-0.6c-0.3-0.3-0.4-0.8-0.3-1.4c0.1-0.6,0.3-1,0.7-1.3c0.4-0.2,0.9-0.3,1.6-0.2l7,1
		c0.7,0.1,1.2,0.3,1.5,0.6c0.3,0.3,0.4,0.8,0.3,1.4s-0.3,1.1-0.7,1.3c-0.3,0.2-0.9,0.3-1.6,0.2l-2.5-0.4l-2,3l3.2,11.6l0.3,0
		c0.6,0.1,1,0.3,1.2,0.6s0.3,0.8,0.3,1.4c-0.1,0.6-0.3,1.1-0.7,1.3c-0.3,0.2-0.9,0.3-1.6,0.2l-4-0.6c-0.7-0.1-1.2-0.3-1.5-0.6
		c-0.3-0.3-0.4-0.8-0.3-1.4c0.1-0.6,0.3-1,0.6-1.2c0.3-0.3,0.8-0.3,1.4-0.3L90.4,182.6z"/>
	<path class="st1" d="M65.6,179.8c-2.4-1-4-2.5-5-4.5s-0.9-4,0-6.1c0.9-2.1,2.4-3.5,4.5-4.2c2.1-0.7,4.3-0.5,6.7,0.5
		c2.4,1,4,2.5,4.9,4.5c0.9,2,0.9,4,0,6.1c-0.9,2.1-2.4,3.5-4.5,4.2C70.2,181,67.9,180.9,65.6,179.8z M66.9,176.7
		c1.2,0.5,2.3,0.5,3.3,0.1c1.1-0.4,1.9-1.2,2.4-2.4c0.5-1.2,0.6-2.3,0.2-3.4s-1.2-1.9-2.3-2.4c-1.2-0.5-2.3-0.5-3.4-0.1
		c-1.1,0.5-1.9,1.3-2.4,2.5c-0.5,1.2-0.6,2.3-0.1,3.4C64.9,175.4,65.7,176.2,66.9,176.7z"/>
	<path class="st1" d="M46.8,163.8L47,164c0.5,0.4,0.7,0.7,0.8,1.2s-0.1,0.9-0.5,1.3c-0.4,0.5-0.8,0.8-1.2,0.8
		c-0.4,0-0.9-0.2-1.5-0.6l-2.4-1.9c-0.2-0.2-0.4-0.4-0.4-0.6c-0.1-0.2,0-0.4,0.1-0.5l6.6-8.4l-0.2-0.2c-0.5-0.4-0.7-0.8-0.8-1.2
		s0.1-0.9,0.4-1.3c0.4-0.5,0.8-0.8,1.2-0.8c0.4,0,0.9,0.2,1.5,0.7l2.1,1.7c0.2,0.2,0.4,0.4,0.4,0.6c0.1,0.2,0,0.4-0.1,0.6l-0.8,1
		c0.9-0.3,1.7-0.4,2.6-0.2c0.8,0.2,1.6,0.5,2.4,1.2c1.4,1.1,2,2.3,2.1,3.6s-0.6,2.9-2,4.5l-3.3,4.2l0.2,0.2c0.5,0.4,0.7,0.7,0.8,1.2
		c0.1,0.4-0.1,0.9-0.5,1.3c-0.4,0.5-0.8,0.8-1.2,0.8s-0.9-0.2-1.5-0.7l-2.4-1.9c-0.2-0.2-0.4-0.4-0.4-0.6c0-0.2,0-0.4,0.1-0.5
		l4.6-5.9c0.8-1,1.2-1.9,1.3-2.5c0-0.6-0.3-1.2-0.9-1.7c-0.7-0.5-1.5-0.7-2.3-0.6s-1.6,0.7-2.3,1.5L46.8,163.8z"/>
	<path class="st1" d="M35.7,148.2l1-0.8c0.4-0.3,0.7-0.3,1.1-0.2c0.4,0.1,0.8,0.4,1.1,0.8c0.3,0.4,0.5,0.9,0.5,1.3
		c0,0.4-0.2,0.7-0.5,1l-0.8,0.6c-0.6,0.5-1.2,0.7-1.7,0.8c-0.5,0-1.1-0.1-1.8-0.5c-0.2-0.1-0.6-0.3-1.1-0.5
		c-1.6-0.8-2.9-0.9-3.7-0.2c-0.6,0.5-1,1.1-1,1.8s0.2,1.4,0.8,2.1c0.5,0.7,0.9,1.1,1.3,1.3c0.3,0.2,0.7,0.2,1.2-0.1
		c0.6-0.3,1-0.4,1.3-0.3c0.3,0.1,0.6,0.3,0.9,0.7c0.3,0.4,0.4,0.7,0.3,1c-0.1,0.3-0.3,0.7-0.8,1l-1.6,1.2c-0.5,0.4-1.2,0.2-2.3-0.5
		c-1.1-0.7-2.1-1.8-3.1-3.1c-1.2-1.6-1.7-3.1-1.6-4.6c0.1-1.5,0.9-2.8,2.3-3.9c1.1-0.8,2.4-1.2,3.8-1S34.1,146.9,35.7,148.2z
		 M39.7,147.3c-0.6-0.8-0.8-1.5-0.8-2.2c0-0.7,0.3-1.3,0.9-1.8c0.6-0.5,1.3-0.6,2-0.4c0.7,0.2,1.4,0.6,1.9,1.4
		c0.6,0.7,0.8,1.5,0.8,2.2c0,0.8-0.3,1.4-0.9,1.8c-0.6,0.5-1.3,0.6-2,0.4C40.9,148.5,40.3,148,39.7,147.3z"/>
	<path class="st1" d="M13.2,109.6l11.9-1.6l-0.4-2.7c-0.1-0.7,0-1.3,0.2-1.6c0.2-0.4,0.6-0.6,1.3-0.6c0.6-0.1,1.1,0,1.4,0.3
		s0.5,0.8,0.6,1.5l1.3,9.5c0.1,0.7,0,1.3-0.2,1.6c-0.2,0.4-0.7,0.6-1.3,0.7c-0.6,0.1-1.1,0-1.4-0.3c-0.3-0.3-0.5-0.8-0.6-1.5
		l-0.4-2.7l-11.9,1.6l0.4,2.7c0.1,0.7,0,1.3-0.2,1.6c-0.2,0.4-0.7,0.6-1.3,0.6c-0.6,0.1-1.1,0-1.4-0.3s-0.5-0.8-0.6-1.5l-1.3-9.5
		c-0.1-0.8,0-1.3,0.2-1.6c0.2-0.3,0.7-0.5,1.3-0.6c0.6-0.1,1.1,0,1.4,0.3c0.3,0.3,0.5,0.8,0.6,1.5L13.2,109.6z"/>
	<path class="st1" d="M9.8,89.1l0.4-3.2c0-0.1,0.1-0.2,0.1-0.3c0.1-0.1,0.1-0.1,0.2-0.1c0.1,0,0.1,0,0.2,0s0.1,0.1,0.2,0.1l7.1,4.9
		c0.1,0.1,0.3,0.2,0.3,0.3c0.1,0.1,0.1,0.2,0.1,0.4c0,0.1,0,0.1,0,0.2c0,0,0,0.1,0,0.1l-0.5,1c-0.1,0.1-0.1,0.3-0.2,0.3
		s-0.2,0.1-0.3,0.1c-0.1,0-0.2,0-0.2,0c0,0-0.1,0-0.1,0L10.5,90c-0.3-0.1-0.5-0.3-0.6-0.4C9.8,89.5,9.8,89.3,9.8,89.1z"/>
	<path class="st1" d="M21,67.2c-0.3-0.6-0.4-1.2-0.4-1.9c0-0.6,0.1-1.3,0.4-1.9c0.5-1.4,1.3-2.2,2.4-2.4s2.5,0,4.4,0.7l5.7,2.3
		l0.1-0.2c0.2-0.5,0.5-0.8,0.8-0.9c0.4-0.1,0.8-0.1,1.3,0.1c0.6,0.2,1,0.5,1.1,0.9s0.1,0.8-0.1,1.4l-1,2.5c-0.1,0.3-0.2,0.5-0.4,0.6
		c-0.2,0.1-0.4,0.1-0.6,0l-8.4-3.4c-0.7-0.3-1.2-0.4-1.6-0.3c-0.4,0.1-0.7,0.3-0.9,0.7c-0.2,0.5-0.1,1,0.2,1.4
		c0.3,0.5,0.9,0.8,1.7,1.2l5.2,2.1L31,70c0.2-0.5,0.5-0.8,0.8-0.9c0.4-0.1,0.8-0.1,1.3,0.1c0.6,0.2,1,0.5,1.1,0.9
		c0.2,0.4,0.1,0.8-0.1,1.4l-1,2.5c-0.1,0.3-0.3,0.5-0.4,0.6s-0.4,0.1-0.6,0l-8.4-3.4C23,71,22.5,70.9,22.1,71
		c-0.4,0.1-0.7,0.3-0.9,0.7c-0.2,0.5-0.1,1,0.2,1.4c0.3,0.5,0.9,0.9,1.7,1.2l5.2,2.1l0.1-0.2c0.2-0.5,0.5-0.8,0.8-0.9
		c0.4-0.1,0.8-0.1,1.4,0.1c0.6,0.2,1,0.5,1.1,0.9c0.2,0.4,0.1,0.8-0.1,1.4l-1.4,3.4c-0.2,0.6-0.5,0.9-0.9,1.1
		c-0.4,0.1-0.8,0.1-1.4-0.1c-0.5-0.2-0.9-0.5-1.1-0.8s-0.2-0.8,0-1.2l0.1-0.2l-7.3-2.9l-0.1,0.2c-0.2,0.5-0.5,0.8-0.9,0.9
		c-0.4,0.1-0.8,0.1-1.4-0.1c-0.6-0.2-0.9-0.5-1.1-0.9c-0.2-0.4-0.1-0.8,0.1-1.4l0.8-2c0.2-0.4,0.4-0.7,0.6-0.7c0.2-0.1,0.6,0,1,0.2
		c-0.4-0.6-0.6-1.2-0.6-1.8c-0.1-0.6,0-1.3,0.3-1.9c0.2-0.6,0.5-1,0.9-1.4C19.9,67.6,20.4,67.3,21,67.2z"/>
	<path class="st1" d="M44.9,35.3c-0.1-0.7,0-1.5,0.3-2.2c0.3-0.7,0.9-1.3,1.6-1.9c1.3-1.1,2.7-1.5,4-1.3c1.3,0.2,2.6,1,3.7,2.5
		l3.8,4.7l0.2-0.2c0.4-0.4,0.9-0.5,1.3-0.5c0.4,0,0.8,0.3,1.2,0.7c0.4,0.5,0.6,0.9,0.5,1.4s-0.4,0.8-1,1.3l-3.1,2.5
		c-0.6,0.4-1,0.7-1.5,0.6s-0.8-0.3-1.2-0.8c-0.4-0.5-0.5-0.9-0.5-1.3c0-0.4,0.3-0.8,0.7-1.2l0.2-0.2l-2.9-3.7
		c-0.9-1.1-1.6-1.7-2.2-1.9c-0.6-0.2-1.2-0.1-1.9,0.5c-0.7,0.5-1,1.3-1.1,2.2c0,0.9,0.3,1.8,0.9,2.6l2.9,3.7l0.2-0.2
		c0.5-0.4,0.9-0.5,1.3-0.5c0.4,0,0.8,0.3,1.2,0.7c0.4,0.5,0.6,0.9,0.5,1.4c-0.1,0.4-0.4,0.8-0.9,1.3l-3.1,2.5
		c-0.6,0.5-1.1,0.7-1.5,0.7c-0.4,0-0.8-0.3-1.2-0.8c-0.4-0.4-0.5-0.9-0.5-1.3c0-0.4,0.3-0.8,0.7-1.2l0.2-0.2l-8.7-10.9l-0.2,0.2
		c-0.4,0.4-0.9,0.5-1.3,0.5c-0.4,0-0.8-0.3-1.2-0.8c-0.4-0.5-0.6-0.9-0.5-1.4c0.1-0.4,0.4-0.9,1-1.3l2.4-1.9
		c0.3-0.2,0.5-0.3,0.7-0.3c0.2,0,0.4,0.2,0.7,0.5L44.9,35.3z"/>
	<path class="st1" d="M64.3,30.3c0.7,1,1.6,1.6,2.6,1.8c1,0.2,2.1,0.1,3.3-0.5c1.2-0.5,2.3-1.4,3.2-2.5s1.5-1.7,1.8-1.8
		c0.4-0.2,0.7-0.2,1.1,0c0.4,0.2,0.6,0.5,0.8,0.9c0.4,0.9,0.1,2-1,3.3s-2.6,2.4-4.6,3.2c-2.4,1.1-4.6,1.2-6.7,0.6
		c-2.1-0.7-3.6-2.1-4.5-4.2c-0.9-2.1-0.9-4.1,0-6.1s2.5-3.5,4.9-4.6c2.1-0.9,4.2-1.1,6.1-0.5s3.3,1.9,4.1,3.7c0.3,0.6,0.3,1,0.1,1.4
		c-0.2,0.3-0.7,0.7-1.6,1.1L64.3,30.3z M71.2,24.4c-0.6-0.8-1.3-1.4-2.2-1.5s-1.9,0-3,0.4c-1.1,0.5-1.8,1.1-2.3,1.9
		c-0.4,0.8-0.6,1.7-0.4,2.8L71.2,24.4z"/>
	<path class="st1" d="M86.5,20.7l0.8,5.2l3.8-0.6c0.7-0.1,1.3-0.1,1.6,0.2s0.6,0.6,0.7,1.2c0.1,0.6,0,1.1-0.2,1.4s-0.7,0.5-1.5,0.7
		l-8.9,1.4c-0.7,0.1-1.3,0.1-1.6-0.2c-0.4-0.2-0.6-0.7-0.7-1.3c-0.1-0.6,0-1.1,0.2-1.4c0.3-0.3,0.8-0.5,1.5-0.6l1.2-0.2l-1.2-7.7
		l-0.7,0.1c-0.7,0.1-1.3,0.1-1.6-0.2c-0.3-0.2-0.6-0.6-0.7-1.3c-0.1-0.6,0-1.1,0.2-1.4c0.2-0.3,0.7-0.5,1.5-0.6l3.4-0.5
		c0.3,0,0.5,0,0.7,0.1c0.2,0.1,0.3,0.3,0.3,0.5l0.4,2.4c1-1.4,1.9-2.5,2.8-3.2c0.9-0.7,2-1.1,3.1-1.3c1.1-0.2,1.9-0.1,2.6,0.3
		c0.7,0.4,1.1,1,1.2,1.8c0.1,0.6,0,1.2-0.4,1.6c-0.4,0.5-0.9,0.8-1.5,0.9c-0.5,0.1-1.1,0-1.8-0.3c-0.7-0.2-1.2-0.3-1.4-0.3
		c-0.5,0.1-1.1,0.4-1.7,1C88,18.7,87.3,19.6,86.5,20.7z"/>
	<path class="st1" d="M103.3,21.8c0.2,1.2,0.6,2.2,1.4,2.8s1.8,1.1,3.1,1.2c1.3,0.1,2.7-0.1,4-0.6c1.4-0.5,2.2-0.8,2.4-0.7
		c0.4,0,0.7,0.2,0.9,0.5s0.3,0.7,0.3,1.2c-0.1,1-0.9,1.8-2.5,2.4c-1.6,0.6-3.4,0.8-5.6,0.6c-2.6-0.3-4.6-1.2-6.1-2.8
		c-1.5-1.6-2.1-3.6-1.9-5.8c0.2-2.3,1.2-4.1,3-5.4c1.8-1.3,3.9-1.8,6.5-1.6c2.3,0.2,4.2,1.1,5.5,2.6s2,3.3,1.8,5.2
		c-0.1,0.6-0.3,1-0.6,1.3s-1,0.3-1.9,0.2L103.3,21.8z M112.2,20.1c-0.1-1-0.5-1.8-1.2-2.4c-0.7-0.6-1.7-1-2.9-1.1
		c-1.2-0.1-2.1,0.1-2.9,0.5c-0.8,0.4-1.3,1.2-1.7,2.2L112.2,20.1z"/>
	<path class="st1" d="M127,27.3c0.9,0.4,1.6,0.9,2,1.6c0.4,0.7,0.4,1.5,0.1,2.4c-0.3,0.8-0.9,1.4-1.6,1.7c-0.8,0.3-1.6,0.3-2.6-0.1
		c-0.9-0.3-1.6-0.9-2-1.6s-0.4-1.5-0.1-2.4c0.3-0.8,0.9-1.4,1.6-1.7C125.2,26.9,126.1,26.9,127,27.3z"/>
</g>
</svg>
