<svg width="24" height="24" viewBox="0 0 24 24" fill="none" xmlns="http://www.w3.org/2000/svg">
<path fill-rule="evenodd" clip-rule="evenodd" d="M4.25 8C4.25 6.48122 5.48122 5.25 7 5.25H17C18.5188 5.25 19.75 6.48122 19.75 8V18C19.75 19.5188 18.5188 20.75 17 20.75H7C5.48122 20.75 4.25 19.5188 4.25 18V8ZM7 6.75C6.30964 6.75 5.75 7.30964 5.75 8V18C5.75 18.6904 6.30964 19.25 7 19.25H17C17.6904 19.25 18.25 18.6904 18.25 18V8C18.25 7.30964 17.6904 6.75 17 6.75H7Z" fill="#F0F3FA"/>
<path fill-rule="evenodd" clip-rule="evenodd" d="M8 3.25C8.41421 3.25 8.75 3.58579 8.75 4V6C8.75 6.41421 8.41421 6.75 8 6.75C7.58579 6.75 7.25 6.41421 7.25 6V4C7.25 3.58579 7.58579 3.25 8 3.25Z" fill="#F0F3FA"/>
<path fill-rule="evenodd" clip-rule="evenodd" d="M16 3.25C16.4142 3.25 16.75 3.58579 16.75 4V6C16.75 6.41421 16.4142 6.75 16 6.75C15.5858 6.75 15.25 6.41421 15.25 6V4C15.25 3.58579 15.5858 3.25 16 3.25Z" fill="#F0F3FA"/>
<path d="M10.0625 16.1406C11.4766 16.1406 12.3867 15.4609 12.3867 14.4062C12.3867 13.6445 11.8477 13.1641 10.9961 13.0781V13.0508C11.6406 12.9219 12.1641 12.4609 12.1641 11.7383C12.1641 10.7812 11.2812 10.2227 10.0547 10.2227C8.94531 10.2227 8.28125 10.7539 8.05859 11.3008C8.00781 11.4219 7.98828 11.5195 7.98828 11.6406C7.98828 11.9688 8.1875 12.2031 8.57812 12.2031C8.89453 12.2031 9.06641 12.0898 9.22656 11.7891C9.39844 11.4531 9.66016 11.2891 10.0625 11.2891C10.5508 11.2891 10.832 11.543 10.832 11.9414C10.832 12.3516 10.4961 12.6211 9.94531 12.6211H9.81641C9.47656 12.6211 9.29688 12.8203 9.29688 13.1055C9.29688 13.3984 9.47656 13.5938 9.81641 13.5938H9.95312C10.5781 13.5938 10.9297 13.8477 10.9297 14.3203C10.9297 14.7266 10.5859 15.0156 10.0938 15.0156C9.55859 15.0156 9.30469 14.8086 9.09766 14.457C8.95703 14.2305 8.78125 14.1328 8.50781 14.1328C8.11719 14.1328 7.87891 14.3594 7.87891 14.7188C7.87891 14.8203 7.90234 14.9375 7.94922 15.0469C8.17578 15.5938 8.86328 16.1406 10.0625 16.1406Z" fill="#F0F3FA"/>
<path d="M15.168 16.0898C15.5938 16.0898 15.8789 15.8125 15.8789 15.3828V11.0742C15.8789 10.582 15.5781 10.2734 15.0625 10.2734C14.7812 10.2734 14.5391 10.3047 14.2383 10.5078L13.1719 11.2344C12.9688 11.375 12.8867 11.5352 12.8867 11.7422C12.8867 12.0312 13.0938 12.2383 13.3711 12.2383C13.5078 12.2383 13.5938 12.207 13.7227 12.1172L14.4258 11.6289H14.4531V15.3828C14.4531 15.8125 14.7422 16.0898 15.168 16.0898Z" fill="#F0F3FA"/>
</svg>
