<svg width="101" height="100" viewBox="0 0 101 100" fill="none" xmlns="http://www.w3.org/2000/svg">
<g filter="url(#filter0_i_4822_27648)">
<path fill-rule="evenodd" clip-rule="evenodd" d="M50.5 100C78.1142 100 100.5 77.6142 100.5 50C100.5 22.3858 78.1142 0 50.5 0C22.8858 0 0.5 22.3858 0.5 50C0.5 77.6142 22.8858 100 50.5 100ZM63.5936 32.6765C57.355 33.6819 52.2145 37.9691 49.9998 43.7105C47.7939 37.9919 42.6855 33.716 36.4804 32.6886C36.9424 25.6036 42.8355 20 50.0374 20C57.2351 20 63.1256 25.5972 63.5936 32.6765ZM46.7791 46.7792C45.5764 41.8933 41.7304 38.0474 36.8445 36.8448C38.0472 41.7307 41.8932 45.5766 46.7791 46.7792ZM50.0374 16C40.6945 16 33.0532 23.2857 32.4851 32.4855C23.2854 33.0539 16 40.6951 16 50.0378C16 59.3822 23.288 67.0244 32.4899 67.5904C33.0952 76.7544 40.7202 84 50.0374 84C59.3562 84 66.9822 76.7519 67.5852 67.5856C76.7514 66.9826 83.9996 59.3567 83.9996 50.0378C83.9996 40.7206 76.754 33.0957 67.59 32.4903C67.0242 23.2882 59.3819 16 50.0374 16ZM20 50.0378C20 57.2354 25.597 63.1258 32.676 63.594C33.6815 57.3552 37.9689 52.2146 43.7106 50C37.9919 47.7943 33.7158 42.6859 32.6883 36.4808C25.6034 36.9431 20 42.8361 20 50.0378ZM46.7987 53.2161C41.8767 54.4198 38.0067 58.305 36.8249 63.2356C41.7469 62.0319 45.6169 58.1466 46.7987 53.2161ZM49.9998 56.3652C47.7945 62.0822 42.6883 66.3573 36.4854 67.3862C36.9839 74.4358 42.8609 80 50.0374 80C57.2098 80 63.0841 74.4422 63.5885 67.3983C57.3521 66.3913 52.2139 62.105 49.9998 56.3652ZM67.3979 63.5889C66.3909 57.3524 62.1042 52.214 56.3641 50C62.0813 47.7949 66.3566 42.6887 67.3857 36.4859C74.4353 36.9843 79.9996 42.8613 79.9996 50.0378C79.9996 57.2102 74.4418 63.0845 67.3979 63.5889ZM63.2544 63.2548C62.0718 58.2886 58.1627 54.3794 53.1964 53.1968C54.379 58.1631 58.2881 62.0722 63.2544 63.2548ZM63.235 36.8254C58.3047 38.0071 54.4196 41.8769 53.2157 46.7986C58.1461 45.6169 62.0312 41.7471 63.235 36.8254Z" fill="#974A5C"/>
</g>
<defs>
<filter id="filter0_i_4822_27648" x="0.5" y="0" width="100" height="102.249" filterUnits="userSpaceOnUse" color-interpolation-filters="sRGB">
<feFlood flood-opacity="0" result="BackgroundImageFix"/>
<feBlend mode="normal" in="SourceGraphic" in2="BackgroundImageFix" result="shape"/>
<feColorMatrix in="SourceAlpha" type="matrix" values="0 0 0 0 0 0 0 0 0 0 0 0 0 0 0 0 0 0 127 0" result="hardAlpha"/>
<feOffset dy="2.24929"/>
<feGaussianBlur stdDeviation="1.12464"/>
<feComposite in2="hardAlpha" operator="arithmetic" k2="-1" k3="1"/>
<feColorMatrix type="matrix" values="0 0 0 0 0 0 0 0 0 0 0 0 0 0 0 0 0 0 0.25 0"/>
<feBlend mode="normal" in2="shape" result="effect1_innerShadow_4822_27648"/>
</filter>
</defs>
</svg>
