<svg width="40" height="40" viewBox="0 0 40 40" fill="none" xmlns="http://www.w3.org/2000/svg">
<rect width="40" height="40" fill="black"/>
<path d="M16.4605 9.62417V14.7674H19.0659V15.9517H16.4605V26.272C16.4605 26.5426 16.4718 26.8585 16.4943 27.2194C16.5169 27.5578 16.5733 27.8848 16.6635 28.2007C16.7763 28.5165 16.9342 28.7872 17.1372 29.0127C17.3628 29.2158 17.6673 29.3173 18.0508 29.3173C18.6599 29.3173 19.2351 29.0127 19.7765 28.4037C20.3405 27.7946 20.7803 26.8697 21.0961 25.6291H22.3481C21.9646 27.0502 21.5473 28.1781 21.0961 29.0127C20.6675 29.8248 20.2164 30.4452 19.7427 30.8738C19.2689 31.3024 18.7952 31.5731 18.3215 31.6859C17.8704 31.8212 17.453 31.8889 17.0695 31.8889C16.2575 31.8889 15.592 31.7423 15.0732 31.449C14.5543 31.1332 14.1483 30.7384 13.855 30.2647C13.5618 29.791 13.3588 29.2722 13.246 28.7082C13.1332 28.1217 13.0768 27.5465 13.0768 26.9825V15.9517H11.9263V14.7674H13.0768V10.0979L16.4605 9.62417Z" fill="white"/>
<path d="M24.4571 8V26.272C24.4571 26.5426 24.4571 26.8585 24.4571 27.2194C24.4797 27.5578 24.5361 27.8848 24.6263 28.2007C24.7391 28.5165 24.8857 28.7872 25.0662 29.0127C25.2692 29.2158 25.5624 29.3173 25.9459 29.3173C26.1264 29.3173 26.3407 29.2947 26.5888 29.2496C26.8595 29.2045 27.0625 29.1594 27.1979 29.1143C27.2205 29.227 27.2317 29.3286 27.2317 29.4188C27.2543 29.509 27.2656 29.6105 27.2656 29.7233C27.2656 30.1068 27.1753 30.4452 26.9949 30.7384C26.837 31.0091 26.6227 31.2347 26.352 31.4152C26.0813 31.5731 25.7767 31.6859 25.4384 31.7535C25.1 31.8438 24.7616 31.8889 24.4233 31.8889C23.7465 31.8889 23.1939 31.7535 22.7653 31.4828C22.3367 31.1896 21.987 30.8174 21.7163 30.3662C21.4682 29.8925 21.299 29.3737 21.2088 28.8097C21.1185 28.2458 21.0734 27.6818 21.0734 27.1179V8.47372L24.4571 8Z" fill="white"/>
<path d="M16.4605 9.62417V14.7674H19.0659V15.9517H16.4605V26.272C16.4605 26.5426 16.4718 26.8585 16.4943 27.2194C16.5169 27.5578 16.5733 27.8848 16.6635 28.2007C16.7763 28.5165 16.9342 28.7872 17.1372 29.0127C17.3628 29.2158 17.6673 29.3173 18.0508 29.3173C18.6599 29.3173 19.2351 29.0127 19.7765 28.4037C20.3405 27.7946 20.7803 26.8697 21.0961 25.6291H22.3481C21.9646 27.0502 21.5473 28.1781 21.0961 29.0127C20.6675 29.8248 20.2164 30.4452 19.7427 30.8738C19.2689 31.3024 18.7952 31.5731 18.3215 31.6859C17.8704 31.8212 17.453 31.8889 17.0695 31.8889C16.2575 31.8889 15.592 31.7423 15.0732 31.449C14.5543 31.1332 14.1483 30.7384 13.855 30.2647C13.5618 29.791 13.3588 29.2722 13.246 28.7082C13.1332 28.1217 13.0768 27.5465 13.0768 26.9825V15.9517H11.9263V14.7674H13.0768V10.0979L16.4605 9.62417Z" fill="white"/>
<path d="M24.4571 8V26.272C24.4571 26.5426 24.4571 26.8585 24.4571 27.2194C24.4797 27.5578 24.5361 27.8848 24.6263 28.2007C24.7391 28.5165 24.8857 28.7872 25.0662 29.0127C25.2692 29.2158 25.5624 29.3173 25.9459 29.3173C26.1264 29.3173 26.3407 29.2947 26.5888 29.2496C26.8595 29.2045 27.0625 29.1594 27.1979 29.1143C27.2205 29.227 27.2317 29.3286 27.2317 29.4188C27.2543 29.509 27.2656 29.6105 27.2656 29.7233C27.2656 30.1068 27.1753 30.4452 26.9949 30.7384C26.837 31.0091 26.6227 31.2347 26.352 31.4152C26.0813 31.5731 25.7767 31.6859 25.4384 31.7535C25.1 31.8438 24.7616 31.8889 24.4233 31.8889C23.7465 31.8889 23.1939 31.7535 22.7653 31.4828C22.3367 31.1896 21.987 30.8174 21.7163 30.3662C21.4682 29.8925 21.299 29.3737 21.2088 28.8097C21.1185 28.2458 21.0734 27.6818 21.0734 27.1179V8.47372L24.4571 8Z" fill="white"/>
</svg>
